HIERARCHY
ROOT hip
{
	OFFSET 0.000000 0.000000 0.000000
	CHANNELS 6 Xposition Yposition Zposition Xrotation Zrotation Yrotation 
	JOINT abdomen
	{
		OFFSET 0.000000 3.422050 0.000000
		CHANNELS 3 Xrotation Zrotation Yrotation 
		JOINT chest
		{
			OFFSET 0.000000 8.486693 -0.684411
			CHANNELS 3 Xrotation Zrotation Yrotation 
			JOINT neck
			{
				OFFSET 0.000000 10.266162 -0.273764
				CHANNELS 3 Xrotation Zrotation Yrotation 
				JOINT head
				{
					OFFSET 0.000000 3.148285 0.000000
					CHANNELS 3 Xrotation Zrotation Yrotation 
					End Site
					{
						OFFSET 0.000000 3.148289 0.000000
					}
				}
			}
			JOINT lCollar
			{
				OFFSET 3.422053 6.707223 -0.821293
				CHANNELS 3 Yrotation Zrotation Xrotation 
				JOINT lShldr
				{
					OFFSET 3.285171 0.000000 0.000000
					CHANNELS 3 Zrotation Yrotation Xrotation 
					JOINT lForeArm
					{
						OFFSET 10.129278 0.000000 0.000000
						CHANNELS 3 Yrotation Zrotation Xrotation 
						JOINT lHand
						{
							OFFSET 8.486692 0.000000 0.000000
							CHANNELS 3 Zrotation Yrotation Xrotation 
							End Site
							{
								OFFSET 4.106464 0.000000 0.000000
							}
						}
					}
				}
			}
			JOINT rCollar
			{
				OFFSET -3.558935 6.707223 -0.821293
				CHANNELS 3 Yrotation Zrotation Xrotation 
				JOINT rShldr
				{
					OFFSET -3.148289 0.000000 0.000000
					CHANNELS 3 Zrotation Yrotation Xrotation 
					JOINT rForeArm
					{
						OFFSET -10.266159 0.000000 0.000000
						CHANNELS 3 Yrotation Zrotation Xrotation 
						JOINT rHand
						{
							OFFSET -8.349810 0.000000 0.000000
							CHANNELS 3 Zrotation Yrotation Xrotation 
							End Site
							{
								OFFSET -4.106464 0.000000 0.000000
							}
						}
					}
				}
			}
		}
	}
	JOINT lThigh
	{
		OFFSET 5.338403 -1.642589 1.368821
		CHANNELS 3 Xrotation Zrotation Yrotation 
		JOINT lShin
		{
			OFFSET -2.053232 -20.121670 0.000000
			CHANNELS 3 Xrotation Zrotation Yrotation 
			JOINT lFoot
			{
				OFFSET 0.000000 -19.300380 -1.231939
				CHANNELS 3 Xrotation Yrotation Zrotation 
				End Site
				{
					OFFSET 0.000000 -2.463878 4.653993
				}
			}
		}
	}
	JOINT rThigh
	{
		OFFSET -5.338403 -1.642589 1.368821
		CHANNELS 3 Xrotation Zrotation Yrotation 
		JOINT rShin
		{
			OFFSET 2.053232 -20.121670 0.000000
			CHANNELS 3 Xrotation Zrotation Yrotation 
			JOINT rFoot
			{
				OFFSET 0.000000 -19.300380 -1.231939
				CHANNELS 3 Xrotation Yrotation Zrotation 
				End Site
				{
					OFFSET 0.000000 -2.463878 4.653993
				}
			}
		}
	}
}
MOTION
Frames: 11
Frame Time: 0.033234
0.928160 43.483444 0.000000 -0.025379 -0.006400 13.161827 -8.702308 2.849190 1.414865 -0.018894 0.094645 -0.194869 13.330785 5.356620 3.469284 -0.808640 -0.223157 2.620174 0.270927 -8.009708 -0.010830 -93.267883 18.167749 0.236804 0.995304 1.991670 -0.012056 -32.835255 -8.015567 -33.553886 -0.022793 4.899193 0.000975 92.098091 -13.924447 0.116989 -2.916869 -5.543489 -10.922633 41.226299 -19.049490 -13.491508 2.897866 -0.088031 -8.136766 0.516327 -0.805520 0.046620 -1.448024 25.526850 -2.812094 -4.121939 -1.594213 5.603827 22.101954 -6.076291 -1.388458 3.557057 11.827393 3.120174 
0.928160 43.483444 0.000000 -0.025680 -0.004731 14.211908 -8.666005 2.863760 2.009696 -0.018886 0.103272 -0.196059 13.330853 5.385922 3.498419 -1.059179 -0.194598 2.764650 0.270927 -8.009708 -0.010830 -93.272385 18.172781 0.235394 0.995304 1.991670 -0.012056 -32.841591 -8.015255 -33.642879 -0.022793 4.899193 0.000975 92.101883 -13.924985 0.116153 -2.923651 -5.534116 -10.923233 41.420925 -19.081938 -13.548496 2.919211 -0.038299 -8.141843 0.514622 -0.806582 0.047008 -1.428178 24.511103 -2.903643 -4.051406 -1.637615 5.620731 22.074890 -5.992987 -1.367011 3.514740 11.340819 3.205047 
0.928160 43.483444 0.000000 -0.025951 -0.003057 15.261201 -8.629523 2.877962 2.604994 -0.018877 0.111900 -0.197248 13.330935 5.415223 3.527555 -1.309583 -0.165415 2.908965 0.270927 -8.009709 -0.010830 -93.276855 18.177807 0.233982 0.995304 1.991670 -0.012056 -32.847916 -8.014950 -33.731861 -0.022793 4.899193 0.000975 92.105705 -13.925529 0.115316 -2.930435 -5.524744 -10.923834 41.615574 -19.114191 -13.605598 2.940550 0.011433 -8.146901 0.512918 -0.807644 0.047397 -1.410251 23.494833 -2.994131 -3.980882 -1.681039 5.637584 22.047855 -5.909669 -1.345606 3.473238 10.854321 3.289390 
0.928160 43.483444 0.000000 -0.026192 -0.001381 16.309517 -8.592867 2.891794 3.200729 -0.018869 0.120527 -0.198438 13.331033 5.444525 3.556693 -1.559849 -0.135610 3.053114 0.270927 -8.009708 -0.010830 -93.281334 18.182835 0.232572 0.995304 1.991670 -0.012056 -32.854256 -8.014656 -33.820862 -0.022793 4.899193 0.000975 92.109497 -13.926064 0.114480 -2.937218 -5.515371 -10.924434 41.810276 -19.146255 -13.662822 2.961885 0.061166 -8.151941 0.511214 -0.808707 0.047785 -1.394189 22.478218 -3.083625 -3.910368 -1.724486 5.654383 22.020859 -5.826338 -1.324242 3.432545 10.367922 3.373214 
0.928160 43.483444 0.000000 -0.026401 0.000298 17.356695 -8.556046 2.905255 3.796865 -0.018861 0.129154 -0.199627 13.331147 5.473827 3.585834 -1.809971 -0.105184 3.197092 0.270927 -8.009708 -0.010830 -93.285820 18.187857 0.231160 0.995304 1.991670 -0.012056 -32.860592 -8.014371 -33.909855 -0.022793 4.899192 0.000975 92.113319 -13.926609 0.113645 -2.944001 -5.505998 -10.925030 42.005032 -19.178133 -13.720165 2.983215 0.110899 -8.156960 0.509510 -0.809769 0.048173 -1.379946 21.461420 -3.172188 -3.839864 -1.767954 5.671130 21.993898 -5.742996 -1.302921 3.392649 9.881634 3.456530 
0.928160 43.483444 0.000000 -0.026579 0.001978 18.402559 -8.519068 2.918341 4.393376 -0.018853 0.137782 -0.200817 13.331273 5.503128 3.614974 -1.654234 -0.154270 2.691252 0.270927 -8.009708 -0.010830 -93.290306 18.192884 0.229748 0.995304 1.991670 -0.012056 -32.866924 -8.014097 -33.998848 -0.022793 4.899193 0.000975 92.117126 -13.927146 0.112809 -2.950784 -5.496626 -10.925628 41.999676 -19.177118 -13.718666 3.004540 0.160633 -8.161963 0.507806 -0.810831 0.048562 -1.367477 20.444605 -3.259882 -3.769367 -1.811445 5.687823 21.966970 -5.659639 -1.281641 3.353543 9.395483 3.539353 
0.928160 43.483444 0.000000 -0.026726 0.003659 19.446934 -8.481933 2.931047 4.990225 -0.018845 0.146409 -0.202006 13.331415 5.532429 3.644116 -1.498042 -0.201987 2.185192 0.270927 -8.009708 -0.010830 -93.294800 18.197916 0.228336 0.995304 1.991670 -0.012056 -32.873257 -8.013829 -34.087833 -0.022793 4.899193 0.000975 92.120941 -13.927688 0.111971 -2.957566 -5.487252 -10.926224 41.994331 -19.176107 -13.717168 3.025860 0.210367 -8.166945 0.506102 -0.811894 0.048950 -1.356740 19.427938 -3.346765 -3.698881 -1.854956 5.704466 21.940069 -5.576269 -1.260402 3.315216 8.909481 3.621690 
0.928160 43.483444 0.000000 -0.026843 0.005339 20.489647 -8.444646 2.943372 5.587378 -0.018838 0.155036 -0.203196 13.331574 5.561731 3.673261 -1.341413 -0.248328 1.678935 0.270927 -8.009708 -0.010830 -93.299271 18.202938 0.226923 0.995304 1.991670 -0.012056 -32.879593 -8.013575 -34.176834 -0.022793 4.899193 0.000975 92.124741 -13.928226 0.111134 -2.964349 -5.477880 -10.926820 41.988979 -19.175095 -13.715668 3.047174 0.260102 -8.171909 0.504397 -0.812956 0.049339 -1.347695 18.411573 -3.432893 -3.628402 -1.898489 5.721053 21.913210 -5.492889 -1.239206 3.277663 8.423651 3.703554 
0.928160 43.483444 0.000000 -0.026929 0.007019 21.530542 -8.407217 2.955313 6.184806 -0.018830 0.163663 -0.204385 13.331746 5.591033 3.702407 -1.184368 -0.293288 1.172510 0.270927 -8.009708 -0.010830 -93.303749 18.207966 0.225510 0.995304 1.991670 -0.012056 -32.885929 -8.013330 -34.265831 -0.022793 4.899193 0.000975 92.128548 -13.928767 0.110298 -2.971132 -5.468507 -10.927412 41.983631 -19.174084 -13.714170 3.068485 0.309837 -8.176855 0.502693 -0.814018 0.049727 -1.340306 17.395683 -3.518320 -3.557934 -1.942045 5.737590 21.886379 -5.409494 -1.218051 3.240876 7.938016 3.784957 
0.928160 43.483444 0.000000 -0.026984 0.008696 22.569448 -8.369653 2.966870 6.782478 -0.018823 0.172291 -0.205575 13.331934 5.620334 3.731554 -1.026923 -0.336859 0.665939 0.270927 -8.009708 -0.010830 -93.308243 18.212990 0.224096 0.995304 1.991670 -0.012056 -32.892273 -8.013095 -34.354832 -0.022793 4.899193 0.000975 92.132347 -13.929306 0.109463 -2.977913 -5.459133 -10.928002 41.978279 -19.173071 -13.712672 3.089790 0.359572 -8.181781 0.500989 -0.815081 0.050116 -1.334538 16.380419 -3.603097 -3.487474 -1.985620 5.754072 21.859587 -5.326088 -1.196938 3.204845 7.452586 3.865908 
0.928160 43.483444 0.000000 -0.027009 0.010371 23.606190 -8.331954 2.978036 7.380354 -0.018816 0.180918 -0.206764 13.332138 5.649634 3.760702 -0.869099 -0.379036 0.159247 0.270927 -8.009708 -0.010830 -93.312729 18.218019 0.222682 0.995304 1.991670 -0.012056 -32.898605 -8.012867 -34.443825 -0.022793 4.899193 0.000975 92.136169 -13.929847 0.108625 -2.984695 -5.449760 -10.928595 41.973015 -19.172100 -13.711205 3.108463 0.353033 -8.182745 0.499285 -0.816143 0.050504 -1.330359 15.365962 -3.687278 -3.417023 -2.029217 5.770502 21.832834 -5.242671 -1.175866 3.169564 6.967389 3.946418 
